<svg width="55" height="55" viewBox="0 0 55 55" fill="none" xmlns="http://www.w3.org/2000/svg">
    <g clip-path="url(#clip0)">
        <path d="M24.8805 1.81784L24.8792 1.81891C22.1567 -0.0323972 18.2701 0.119283 13.3899 2.93696C5.99489 7.20644 0 15.7443 0 22.0069L28.2203 38.4361L52.5946 17.8788L24.8805 1.81784Z" fill="url(#paint0_linear)"/>
        <path d="M16.9297 4.98178C21.4349 2.38078 25.0925 2.05303 27.77 3.47422L26.7814 2.90134L26.7801 2.90242C24.0577 1.05111 20.171 1.20279 15.2908 4.02036C7.89577 8.29005 1.90088 16.8279 1.90088 23.0905L3.54003 24.0448C3.54454 17.7828 9.53739 9.24976 16.9297 4.98178Z" fill="#AB2C37"/>
        <path d="M24.3038 9.28321C28.8089 6.6822 32.4665 6.35446 35.144 7.77565L34.1554 7.20277L34.1541 7.20384C31.4317 5.35264 27.545 5.50432 22.6648 8.32189C15.2698 12.5914 9.2749 21.1294 9.2749 27.3919L10.9141 28.3462C10.9186 22.0842 16.9114 13.5511 24.3038 9.28321Z" fill="#AB2C37"/>
        <path d="M31.6738 13.565C36.1789 10.964 39.8365 10.6363 42.514 12.0575L41.5254 11.4846L41.5241 11.4857C38.8017 9.63436 34.915 9.78604 30.0348 12.6036C22.6398 16.8733 16.645 25.4112 16.645 31.6738L18.2842 32.628C18.2886 26.3661 24.2815 17.833 31.6738 13.565Z" fill="#AB2C37"/>
        <path d="M38.9506 17.8102C43.4558 15.2091 47.1134 14.8814 49.7909 16.3026L48.8023 15.7297L48.801 15.7308C46.0786 13.8795 42.1919 14.0312 37.3117 16.8487C29.9168 21.1184 23.9219 29.6563 23.9219 35.9189L25.561 36.8731C25.5654 30.6112 31.5584 22.0781 38.9506 17.8102Z" fill="#AB2C37"/>
        <path d="M41.6101 19.3661C34.2705 23.6036 28.3133 32.0445 28.2243 38.2937L28.2226 38.2979L0 22.0068V37.0587C0 38.1092 0.56042 39.0798 1.47007 39.605L26.138 53.847C27.4279 54.5918 29.0172 54.5916 30.307 53.8468L53.5301 40.4349C54.4397 39.9097 54.9999 38.9391 54.9999 37.8888V22.9747C55 16.7122 49.0051 15.0965 41.6101 19.3661Z" fill="url(#paint1_linear)"/>
        <path d="M53.5303 36.9102L30.3071 50.3219C29.0173 51.0669 27.428 51.0669 26.138 50.3223L1.47007 36.0803C0.56042 35.5551 0 34.5844 0 33.5339V37.0588C0 38.1092 0.56042 39.0799 1.47007 39.6051L26.138 53.8472C27.4279 54.5918 29.0172 54.5918 30.3071 53.8469L53.5303 40.4351C54.4398 39.9099 55 38.9393 55 37.889V34.3642C55 35.4144 54.4397 36.3849 53.5303 36.9102Z" fill="url(#paint2_linear)"/>
        <path d="M38.3892 49.1764L48.0302 43.6101V34.1079L38.3892 39.6965V49.1764Z" fill="#43386B"/>
        <path d="M8.57799 35.1252L5.48779 33.3483V28.5178L8.57799 30.3092V35.1252Z" fill="#43386B"/>
        <path d="M19.9003 41.7328L16.8101 39.9558V35.1252L19.9003 36.9166V41.7328Z" fill="#43386B"/>
        <path d="M38.3892 36.8166L41.4794 35.0397V30.2092L38.3892 32.0005V36.8166Z" fill="#43386B"/>
        <path d="M44.9399 33.0249L48.0301 31.2479V26.4175L44.9399 28.2087V33.0249Z" fill="#43386B"/>
    </g>
    <defs>
        <linearGradient id="paint0_linear" x1="17.8393" y1="32.7356" x2="32.8104" y2="6.8049" gradientUnits="userSpaceOnUse">
            <stop stop-color="#AB2C37"/>
            <stop offset="0.2007" stop-color="#B52F3B"/>
            <stop offset="0.5471" stop-color="#D13846"/>
            <stop offset="0.9952" stop-color="#FE4757"/>
            <stop offset="1" stop-color="#FF4757"/>
        </linearGradient>
        <linearGradient id="paint1_linear" x1="24.5601" y1="35.6929" x2="28.9683" y2="35.6929" gradientUnits="userSpaceOnUse">
            <stop stop-color="#C5BAEB"/>
            <stop offset="1" stop-color="#D7D1EB"/>
        </linearGradient>
        <linearGradient id="paint2_linear" x1="25.2543" y1="43.9698" x2="31.4357" y2="43.9698" gradientUnits="userSpaceOnUse">
            <stop stop-color="#AB2C37"/>
            <stop offset="0.2007" stop-color="#B52F3B"/>
            <stop offset="0.5471" stop-color="#D13846"/>
            <stop offset="0.9952" stop-color="#FE4757"/>
            <stop offset="1" stop-color="#FF4757"/>
        </linearGradient>
        <clipPath id="clip0">
            <rect width="55" height="55" fill="white"/>
        </clipPath>
    </defs>
</svg>
