<svg width="46" height="43" viewBox="0 0 46 43" fill="none" xmlns="http://www.w3.org/2000/svg">
    <path d="M45.3438 25.9845H45.3306L45.0196 25.9136C44.9887 25.9136 44.9512 25.9291 44.9115 25.9823L44.616 26.3705C44.494 26.5635 44.4283 26.7871 44.4263 27.0159V28.9365C44.4263 29.1583 44.5101 29.2226 44.616 29.0851L44.9115 28.697C45.0324 28.5043 45.0981 28.2817 45.1012 28.0538V27.058L45.3438 25.9845Z" fill="#2E2E3B"/>
    <path d="M45.2489 28.77L44.9534 29.1581C44.8475 29.2956 44.7637 29.2291 44.7637 29.0095V27.0889C44.7657 26.8601 44.8314 26.6365 44.9534 26.4435L45.2489 26.0553C45.3526 25.92 45.4121 25.9866 45.4386 26.2061C45.5886 27.5369 45.4386 28.1268 45.4386 28.1268C45.4163 28.3513 45.3519 28.5696 45.2489 28.77Z" fill="url(#paint0_linear_12315:73652)"/>
    <g style="mix-blend-mode:multiply">
        <path d="M44.3798 36.351C43.363 35.3486 15.5387 18.9031 14.1911 18.8521C13.8426 18.8366 13.0618 19.1715 12.0891 19.6816C11.0899 19.1581 10.4304 18.8521 10.2407 18.8521C8.8931 18.7966 0.996879 23.9931 0.580012 24.3967C0.163145 24.8004 -0.379445 25.5057 0.381504 25.9493L28.5278 42.3105C29.1598 42.6842 29.873 42.8974 30.6055 42.9315C31.898 43.0157 35.3631 43.0934 36.1483 42.7341H36.1637C36.7093 42.5569 37.2415 42.3405 37.7562 42.0865C38.5414 41.7272 43.932 38.5556 44.3511 38.2562C45.0503 37.7461 45.3988 37.3535 44.3798 36.351Z" fill="#B6B6CD"/>
    </g>
    <path d="M28.7352 35.2307L7.07129 22.6553V21.6484L28.7352 34.226V35.2307Z" fill="#1B1B1B"/>
    <path d="M9.91219 23.7842L10.3577 24.0437L9.50194 24.4983L9.0564 24.2411L9.91219 23.7842Z" fill="#602929"/>
    <path d="M11.6656 24.6429L9.72461 25.947V23.4408L11.6656 22.1367V24.6429Z" fill="#1A1A1A"/>
    <path d="M9.50195 25.8158L9.72472 25.9466V23.4404L9.50195 23.3096V25.8158Z" fill="#292929"/>
    <path d="M11.5839 24.5187L10.373 25.6011L10.2517 26.6701L11.1935 26.1223L11.3148 25.0532L12.5257 23.9731L11.5839 24.5187Z" fill="#292929"/>
    <path d="M28.4307 36.2953L29.7651 35.3771L33.4992 37.8278L32.9081 34.2083L28.9049 33.208L28.4307 36.2953Z" fill="#222222"/>
    <path d="M34.1567 38.6796C34.1567 37.4709 33.3076 35.9982 32.2599 35.3883C31.7371 35.0867 31.2629 35.0557 30.9211 35.2486L29.7234 35.9428V36.8765L32.4143 40.5915L33.537 39.9261C33.5905 39.9017 33.6415 39.872 33.6891 39.8374C33.9671 39.6378 34.1567 39.2363 34.1567 38.6796Z" fill="#23222D"/>
    <path d="M29.1895 37.1558C29.1895 38.3645 30.0386 39.8394 31.0863 40.4471C32.134 41.0548 32.9832 40.5691 32.9832 39.3603C32.9832 38.1516 32.134 36.6767 31.0863 36.069C30.0386 35.4613 29.1895 35.947 29.1895 37.1558Z" fill="#393843"/>
    <path d="M32.8796 39.3272C32.8796 40.4916 32.0613 40.9596 31.0533 40.3741C30.0453 39.7885 29.2292 38.378 29.2292 37.2092C29.2292 36.0403 30.0453 35.5768 31.0533 36.1623C32.0613 36.7478 32.8796 38.1651 32.8796 39.3272Z" fill="#2D2C37"/>
    <path d="M29.9968 37.6196C30.0184 38.0027 30.1295 38.3752 30.3211 38.707C30.5127 39.0388 30.7794 39.3205 31.0996 39.5292C31.7084 39.8818 32.2025 39.5979 32.2025 38.8971C32.1809 38.514 32.0698 38.1414 31.8782 37.8096C31.6866 37.4778 31.4199 37.1962 31.0996 36.9875C30.4799 36.6349 29.9968 36.9187 29.9968 37.6196Z" fill="#C4C2BB"/>
    <path d="M30.1445 37.7037C30.1625 38.0314 30.2571 38.3503 30.4208 38.6344C30.5844 38.9184 30.8125 39.1596 31.0863 39.3382C31.6069 39.6421 32.0304 39.4003 32.0304 38.7993C32.0118 38.4714 31.9167 38.1525 31.7527 37.8685C31.5887 37.5845 31.3604 37.3434 31.0863 37.1647C30.5658 36.8675 30.1445 37.1093 30.1445 37.7037Z" fill="#B7B4A9"/>
    <path d="M30.5172 38.2205C30.5668 38.3855 30.6528 38.5371 30.7687 38.6641C30.7916 38.6875 30.809 38.7158 30.8197 38.7469C30.8304 38.778 30.834 38.811 30.8304 38.8437C30.8172 38.8903 30.7488 38.877 30.6871 38.8038C30.5393 38.6289 30.4262 38.4271 30.354 38.2094C30.3232 38.1185 30.354 38.0564 30.3981 38.0697C30.428 38.0842 30.4542 38.1053 30.4748 38.1314C30.4954 38.1575 30.5099 38.188 30.5172 38.2205Z" fill="#504F58"/>
    <path d="M31.6554 38.1982C31.607 38.0327 31.5209 37.8808 31.4039 37.7547C31.381 37.7312 31.3636 37.7029 31.3529 37.6718C31.3422 37.6408 31.3386 37.6077 31.3422 37.575C31.3576 37.5284 31.426 37.5418 31.4877 37.6149C31.6355 37.7898 31.7486 37.9916 31.8208 38.2093C31.8495 38.3003 31.8208 38.3624 31.7767 38.3491C31.7464 38.3348 31.7198 38.3138 31.6987 38.2877C31.6777 38.2616 31.6629 38.231 31.6554 38.1982Z" fill="#504F58"/>
    <path d="M31.382 39.0344C31.4347 39.0442 31.4892 39.036 31.5368 39.011C31.5843 38.9861 31.6222 38.9459 31.6445 38.8969C31.6687 38.8569 31.7195 38.8525 31.768 38.8969C31.7921 38.921 31.8085 38.9518 31.8152 38.9854C31.8218 39.019 31.8185 39.0537 31.8055 39.0854C31.7706 39.1455 31.7197 39.1946 31.6585 39.2272C31.5973 39.2597 31.5282 39.2744 31.4592 39.2695C31.4248 39.2642 31.3928 39.2487 31.3672 39.225C31.3417 39.2013 31.3238 39.1704 31.3158 39.1364C31.3026 39.0743 31.3335 39.0344 31.382 39.0344Z" fill="#504F58"/>
    <path d="M31.5408 39.2563C31.5063 39.2514 31.4741 39.236 31.4485 39.2122C31.4229 39.1884 31.4051 39.1574 31.3974 39.1233C31.3939 39.1106 31.393 39.0974 31.3949 39.0844C31.3968 39.0714 31.4014 39.0589 31.4085 39.0479H31.382C31.3335 39.0479 31.3026 39.0856 31.3158 39.1499C31.3238 39.1839 31.3417 39.2148 31.3672 39.2385C31.3928 39.2622 31.4248 39.2777 31.4592 39.2829C31.5189 39.2871 31.5788 39.2764 31.6334 39.2519C31.6029 39.2578 31.5717 39.2593 31.5408 39.2563Z" fill="#999585"/>
    <path d="M31.726 38.8748C31.7116 38.8682 31.6952 38.8674 31.6801 38.8723C31.6651 38.8772 31.6523 38.8876 31.6444 38.9014C31.6201 38.9461 31.5853 38.9842 31.543 39.0123C31.5825 39.0066 31.62 38.9911 31.652 38.967C31.684 38.943 31.7094 38.9113 31.726 38.8748Z" fill="#999585"/>
    <path d="M30.7908 37.382C30.7384 37.3727 30.6844 37.3812 30.6373 37.4061C30.5902 37.431 30.5526 37.4709 30.5305 37.5195C30.5062 37.5594 30.4555 37.5639 30.407 37.5195C30.3818 37.4961 30.3646 37.4652 30.3579 37.4314C30.3512 37.3975 30.3552 37.3624 30.3695 37.331C30.4043 37.2709 30.4553 37.2217 30.5165 37.1892C30.5777 37.1567 30.6467 37.142 30.7158 37.1469C30.7502 37.1529 30.7821 37.1689 30.8076 37.193C30.8331 37.217 30.851 37.248 30.8591 37.2822C30.879 37.3443 30.8393 37.3842 30.7908 37.382Z" fill="#504F58"/>
    <path d="M30.7312 38.744C30.5846 38.5691 30.4717 38.3683 30.3982 38.1518C30.3945 38.1261 30.3945 38.1 30.3982 38.0742C30.3585 38.0742 30.3364 38.1274 30.3651 38.2117C30.4373 38.4294 30.5503 38.6312 30.6981 38.8061C30.7599 38.8793 30.8283 38.8926 30.8415 38.846C30.8415 38.846 30.8415 38.8216 30.8415 38.8106C30.7979 38.8027 30.7586 38.779 30.7312 38.744Z" fill="#B7B4A9"/>
    <path d="M31.823 38.287C31.793 38.273 31.7665 38.2524 31.7455 38.2266C31.7245 38.2009 31.7095 38.1708 31.7017 38.1384C31.6518 37.9736 31.5659 37.822 31.4502 37.6949C31.4155 37.6553 31.3946 37.6055 31.3907 37.5529C31.381 37.55 31.3706 37.551 31.3616 37.5555C31.3526 37.56 31.3457 37.5678 31.3422 37.5773C31.3386 37.61 31.3422 37.6431 31.3529 37.6741C31.3636 37.7052 31.381 37.7335 31.4039 37.757C31.5209 37.8831 31.607 38.035 31.6554 38.2005C31.6632 38.2329 31.6782 38.263 31.6992 38.2887C31.7202 38.3145 31.7466 38.3351 31.7767 38.3491C31.8097 38.3491 31.8296 38.3314 31.8318 38.287H31.823Z" fill="#B7B4A9"/>
    <path d="M30.4533 37.4597C30.429 37.4362 30.4123 37.4059 30.4052 37.3727C30.3981 37.3395 30.4011 37.3049 30.4136 37.2734C30.3965 37.2907 30.3817 37.3101 30.3695 37.3311C30.3552 37.3625 30.3512 37.3976 30.3579 37.4315C30.3646 37.4653 30.3818 37.4962 30.407 37.5196C30.4555 37.564 30.5062 37.5595 30.5305 37.5196C30.5428 37.5 30.5569 37.4814 30.5724 37.4642C30.5648 37.4727 30.5555 37.4795 30.545 37.484C30.5345 37.4885 30.5232 37.4906 30.5118 37.4902C30.5004 37.4898 30.4893 37.4868 30.4792 37.4816C30.469 37.4763 30.4602 37.4688 30.4533 37.4597Z" fill="#B7B4A9"/>
    <path d="M30.8371 37.3223C30.787 37.313 30.7351 37.3203 30.6894 37.3431C30.6436 37.3659 30.6065 37.4029 30.5835 37.4488C30.6118 37.42 30.6468 37.3988 30.6853 37.3872C30.7239 37.3756 30.7647 37.3739 30.8041 37.3822C30.8416 37.3822 30.8614 37.3556 30.8658 37.3135C30.8482 37.3157 30.8438 37.3223 30.8371 37.3223Z" fill="#B7B4A9"/>
    <path d="M31.1393 39.272C30.8755 39.101 30.6558 38.8695 30.4982 38.5965C30.3406 38.3235 30.2496 38.0169 30.2328 37.7017C30.2328 37.2426 30.4886 37.0031 30.8459 37.0674C30.4423 36.9565 30.1445 37.2071 30.1445 37.7106C30.1625 38.0384 30.2571 38.3573 30.4208 38.6413C30.5844 38.9254 30.8125 39.1665 31.0863 39.3452C31.5275 39.6025 31.898 39.4672 31.9995 39.0524C31.8826 39.4028 31.5407 39.5071 31.1393 39.272Z" fill="#999585"/>
    <path d="M30.4775 37.9032C30.4892 38.1152 30.5503 38.3215 30.6561 38.5053C30.7619 38.6892 30.9093 38.8453 31.0863 38.9611C31.4238 39.1563 31.6973 39.001 31.6973 38.6129C31.6856 38.4006 31.6241 38.1941 31.518 38.0103C31.4118 37.8264 31.2639 37.6704 31.0863 37.555C30.751 37.3598 30.4775 37.515 30.4775 37.9032Z" fill="#C4C2BB"/>
    <path d="M30.5813 37.9654C30.5913 38.141 30.6423 38.3118 30.73 38.464C30.8177 38.6162 30.9398 38.7455 31.0864 38.8415C31.3665 39.0034 31.5937 38.8747 31.5937 38.5509C31.5845 38.3749 31.5336 38.2036 31.4454 38.0512C31.3572 37.8988 31.2341 37.7698 31.0864 37.6749C30.8085 37.513 30.5813 37.6416 30.5813 37.9654Z" fill="#B7B4A9"/>
    <path d="M31.1548 38.7616C31.0176 38.6717 30.9033 38.5505 30.8213 38.408C30.7393 38.2654 30.6919 38.1054 30.6828 37.941C30.6828 37.7458 30.771 37.6283 30.9033 37.6083C30.7158 37.5839 30.5813 37.717 30.5813 37.9654C30.5913 38.141 30.6423 38.3118 30.73 38.464C30.8177 38.6161 30.9398 38.7454 31.0864 38.8415C31.307 38.9701 31.4966 38.9146 31.565 38.7261C31.4834 38.8415 31.3312 38.8636 31.1548 38.7616Z" fill="#999585"/>
    <path d="M42.6218 32.5674V32.7426L45.348 34.2197V34.0423L42.6218 32.5674Z" fill="#292929"/>
    <path d="M45.348 35.2464L42.6218 33.7715V34.0243L43.0519 34.7895L44.7591 35.6722L45.348 35.3772V35.2464Z" fill="#292929"/>
    <path d="M42.6218 32.7422V33.7713L45.348 35.2462V34.2193L42.6218 32.7422Z" fill="#222222"/>
    <path d="M34.0044 37.9634V38.9903L36.6401 40.5206V39.4915L34.0044 37.9634Z" fill="#222222"/>
    <path d="M33.4309 37.9033V38.0785L36.0644 39.6089V39.4314L33.4309 37.9033Z" fill="#292929"/>
    <path d="M45.0481 36.1514L45.8289 35.3086L44.9775 36.1514L37.8026 40.3165L35.2087 40.2944L35.3212 40.6647L36.0513 41.0107C36.0513 41.0107 37.3372 40.6625 37.6791 40.525C39.5031 39.7909 42.6109 37.8636 44.3247 36.7546C44.4306 36.6726 45.0481 36.1514 45.0481 36.1514Z" fill="#B9B3C0"/>
    <path d="M45.7628 35.4857C45.7628 35.4857 45.3216 35.896 45.1871 36.0025C44.3048 36.7078 40.0545 39.3759 37.6195 40.3961C37.4298 40.4759 36.6821 40.7266 36.6821 40.7266C36.5332 40.7814 36.3733 40.7995 36.216 40.7795C36.0587 40.7594 35.9084 40.7017 35.7778 40.6112L35.2087 40.2874V39.2561L44.3666 35.5279L45.2488 34.7339L45.6547 34.8647C45.9304 35.0422 45.8113 35.437 45.7628 35.4857Z" fill="#D0CCD5"/>
    <path d="M45.8289 34.1753V35.3042C45.8289 35.3042 45.1826 35.9695 44.9775 36.147C43.9056 37.1007 39.6575 39.4494 37.8025 40.3121C37.4893 40.4585 36.5056 40.7779 36.5056 40.7779V39.649L37.8025 39.1832L44.9775 35.0181L45.8289 34.1753Z" fill="#D0CCD5"/>
    <path d="M45.7628 34.4544C45.7628 34.4544 45.3216 34.8669 45.1871 34.9711C44.3048 35.6764 40.0545 38.3445 37.6195 39.3647C37.4298 39.4446 36.8475 39.6486 36.8475 39.6486C36.6739 39.7108 36.4895 39.7368 36.3056 39.725C36.1217 39.7132 35.9421 39.6638 35.7778 39.5798L35.2087 39.256L35.447 39.0786L36.8012 38.8879L44.3732 34.5409L45.315 33.6382L45.6459 33.8311C45.9304 33.9997 45.8113 34.4033 45.7628 34.4544Z" fill="#E0DAD3"/>
    <path d="M36.3931 39.6401C36.1965 39.644 36.0021 39.5975 35.8284 39.5048L35.3674 39.2564L35.4821 39.1743L36.8298 38.9836L44.4238 34.6233L45.3259 33.7583L45.6016 33.918C45.6357 33.9368 45.6651 33.9632 45.6877 33.995C45.7102 34.0269 45.7253 34.0635 45.7318 34.1021C45.752 34.2036 45.7404 34.309 45.6987 34.4037C45.648 34.4503 45.2576 34.8162 45.1318 34.9138C44.2716 35.608 39.9927 38.285 37.5863 39.2941C37.401 39.3717 36.8254 39.5736 36.8187 39.5758C36.6816 39.6219 36.5376 39.6437 36.3931 39.6401Z" fill="#EDEDED"/>
    <path d="M16.0681 28.1493C16.0681 26.9405 15.219 25.4679 14.1713 24.8602C13.6485 24.5563 13.1765 24.5253 12.8324 24.7204L11.6326 25.4168V26.3506L14.3235 30.0633L15.4483 29.409C15.501 29.3843 15.5512 29.3546 15.5983 29.3203C15.8806 29.1096 16.0681 28.7059 16.0681 28.1493Z" fill="#23222D"/>
    <path d="M11.103 26.6279C11.103 27.8367 11.9522 29.3093 12.9999 29.9192C14.0476 30.5292 14.8967 30.039 14.8967 28.8303C14.8967 27.6215 14.0476 26.1489 12.9999 25.5412C11.9522 24.9335 11.103 25.4192 11.103 26.6279Z" fill="#393843"/>
    <path d="M14.791 28.7989C14.791 29.9611 13.9749 30.4312 12.9669 29.8457C11.9589 29.2602 11.1406 27.8496 11.1406 26.6808C11.1406 25.512 11.9589 25.0485 12.9669 25.634C13.9749 26.2195 14.791 27.6367 14.791 28.7989Z" fill="#2D2C37"/>
    <path d="M14.1007 28.3687C14.1007 29.0696 13.6066 29.3512 12.9978 28.9986C12.6776 28.7899 12.4109 28.5083 12.2193 28.1765C12.0277 27.8447 11.9166 27.4721 11.895 27.089C11.895 26.3882 12.3869 26.1065 12.9978 26.4591C13.3181 26.6678 13.5848 26.9495 13.7764 27.2813C13.968 27.6131 14.0791 27.9857 14.1007 28.3687Z" fill="#C4C2BB"/>
    <path d="M13.9904 28.3044C13.9904 28.9343 13.5493 29.1916 13.0001 28.8722C12.7122 28.6843 12.4724 28.4306 12.3003 28.132C12.1283 27.8333 12.0287 27.498 12.0098 27.1534C12.0098 26.5235 12.4509 26.2662 13.0001 26.5856C13.0505 26.616 13.0991 26.6494 13.1457 26.6854C13.5931 27.041 13.8901 27.5536 13.9772 28.1204C13.9859 28.1813 13.9903 28.2428 13.9904 28.3044Z" fill="#B0AC9E"/>
    <path d="M13.3574 28.6106C13.0849 28.433 12.858 28.1932 12.6951 27.9107C12.5322 27.6282 12.4379 27.311 12.42 26.9849C12.4135 26.8877 12.4263 26.7902 12.4577 26.698C12.4892 26.6059 12.5386 26.5209 12.6031 26.4482C12.2546 26.4216 12.0098 26.67 12.0098 27.1491C12.0287 27.4937 12.1283 27.829 12.3003 28.1277C12.4724 28.4264 12.7122 28.68 13.0001 28.8679C13.3971 29.0897 13.7412 29.0254 13.8978 28.726C13.7096 28.7578 13.5165 28.7166 13.3574 28.6106Z" fill="#B7B4A9"/>
    <g style="mix-blend-mode:multiply">
        <g style="mix-blend-mode:multiply">
            <path d="M13.9309 28.1934C13.9309 28.5793 13.6596 28.7368 13.3243 28.5416C13.1482 28.4261 13.0015 28.2706 12.8961 28.0876C12.7907 27.9046 12.7296 27.6993 12.7178 27.4881C12.7178 27.1 12.9891 26.9448 13.3243 27.1399C13.5007 27.2551 13.6476 27.4106 13.753 27.5937C13.8584 27.7767 13.9194 27.9822 13.9309 28.1934Z" fill="#CDC6BC"/>
        </g>
    </g>
    <path d="M13.9772 28.1205C13.8736 28.2713 13.675 28.3002 13.4501 28.1693C13.2736 28.0539 13.1266 27.8985 13.0208 27.7155C12.9151 27.5325 12.8536 27.3271 12.8413 27.1158C12.8413 26.8563 12.9648 26.6989 13.1457 26.6855C13.5931 27.0412 13.8901 27.5538 13.9772 28.1205Z" fill="#9D9783"/>
    <path d="M13 26.7363L12.5435 27.0003L13.4412 28.4663L13.8911 28.2046L13.5845 27.4682L13 26.7363Z" fill="#9D9783"/>
    <path d="M13.6067 28.0826C13.6067 28.4685 13.3354 28.6237 13.0001 28.4308C12.8237 28.3154 12.6766 28.16 12.5709 27.977C12.4651 27.794 12.4037 27.5886 12.3914 27.3773C12.3914 26.9892 12.6649 26.8339 13.0001 27.0291C13.1773 27.1435 13.3247 27.2988 13.4302 27.482C13.5357 27.6652 13.5962 27.8711 13.6067 28.0826Z" fill="#B7B4A9"/>
    <path d="M13.5469 28.0716C13.5469 28.442 13.2866 28.5906 12.9668 28.4043C12.7983 28.294 12.6581 28.1454 12.5573 27.9705C12.4565 27.7955 12.3981 27.5992 12.3867 27.3974C12.3867 27.027 12.647 26.8784 12.9668 27.0647C13.1353 27.175 13.2755 27.3237 13.3763 27.4986C13.4771 27.6735 13.5355 27.8698 13.5469 28.0716Z" fill="#EDEDED"/>
    <path d="M37.8223 12.582V27.1068L37.54 27.271L27.3256 33.2015L26.825 33.4921V18.9673L37.8223 12.582Z" fill="#C7C8CA"/>
    <g style="mix-blend-mode:multiply">
        <path d="M37.54 19.0648V27.271L27.3257 33.2015V24.9954L27.7492 24.4143L37.0813 18.9961L37.54 19.0648Z" fill="#C7C8CA"/>
    </g>
    <path d="M37.0549 19.6148L37.324 24.6738V27.8298L41.1663 30.4491L42.4191 32.4452L45.0394 33.8602V31.8641L45.2599 32.0859L45.1695 30.4868L45.2599 30.1497L45.2004 29.837L45.0239 29.1051C45.0239 29.1051 44.746 27.9163 44.4218 26.783C44.0976 25.6497 42.9639 22.9882 42.9639 22.9882L42.7543 22.7221L37.1983 19.4995L37.0549 19.6148Z" fill="#98AC9F"/>
    <path d="M37.3328 24.6738V27.8299L41.175 30.4492L42.4278 32.4541L45.0481 33.8691V31.8686L45.2643 32.0904L45.1738 30.4913L42.977 29.1184L39.5252 25.9469L37.3328 24.6738Z" fill="#7B9685"/>
    <path d="M44.9379 33.7339L42.6572 32.5185V32.5008C42.5332 32.117 42.3737 31.7458 42.1808 31.3919C41.809 30.722 41.3358 30.1144 40.778 29.591L38.0915 28.0207C38 27.9613 37.9238 27.8808 37.8694 27.786C37.8149 27.6911 37.7837 27.5845 37.7783 27.4751L37.496 20.358C37.4931 20.3193 37.5003 20.2805 37.5169 20.2454C37.5336 20.2104 37.559 20.1804 37.5908 20.1584C37.6259 20.1415 37.6648 20.1343 37.7035 20.1374C37.7422 20.1405 37.7795 20.1539 37.8114 20.1761L42.5756 22.9418C42.7026 23.022 42.8007 23.1409 42.8557 23.2811C42.944 23.5029 43.105 23.8955 43.3608 24.5941C43.802 25.8162 44.7548 28.6972 44.7813 28.8502C44.8077 29.0032 44.8673 29.7573 44.8717 29.7906L44.9379 33.7339ZM42.7322 32.4675L44.8673 33.6009L44.8077 29.795C44.8077 29.7529 44.7416 28.9966 44.7195 28.8635C44.6974 28.7304 43.7446 25.8228 43.3013 24.6229C43.0454 23.9243 42.8866 23.514 42.7984 23.3122C42.7479 23.189 42.6619 23.084 42.5514 23.0106L37.7872 20.2449C37.7694 20.2256 37.7457 20.2128 37.7198 20.2087C37.694 20.2045 37.6675 20.2092 37.6446 20.222C37.6218 20.2348 37.6038 20.2549 37.5937 20.2792C37.5835 20.3034 37.5817 20.3304 37.5886 20.3558L37.8599 27.4773C37.8654 27.5733 37.8932 27.6667 37.9411 27.7499C37.989 27.8331 38.0556 27.9038 38.1356 27.9564L40.8265 29.5311C41.3959 30.0606 41.8783 30.6774 42.2558 31.3586C42.4444 31.7137 42.6016 32.0848 42.7256 32.4675H42.7322Z" fill="#6F8B79"/>
    <path d="M38.3936 31.8066C38.3936 33.0087 39.2383 34.468 40.2794 35.0779C41.3204 35.6879 42.1652 35.1999 42.1652 33.9978C42.1652 32.7958 41.3204 31.3364 40.2794 30.7265C39.2383 30.1166 38.3936 30.6067 38.3936 31.8066Z" fill="#222222"/>
    <path d="M38.1577 25.9179L38.6121 26.1818C38.6335 26.1973 38.651 26.2176 38.6633 26.2411C38.6755 26.2646 38.6822 26.2906 38.6827 26.3171V27.426C38.6827 27.4793 38.6496 27.5014 38.6121 27.4793L38.1577 27.2242C38.1363 27.2093 38.1186 27.1895 38.1063 27.1663C38.0941 27.1431 38.0875 27.1174 38.0872 27.0911V25.9711C38.096 25.9201 38.1269 25.8957 38.1577 25.9179Z" fill="#383838"/>
    <path d="M38.1775 26.6475L38.6186 26.8981V27.3416C38.6186 27.366 38.6054 27.3771 38.5855 27.366L38.2172 27.1443C38.2075 27.1372 38.1996 27.1278 38.1942 27.117C38.1888 27.1062 38.1861 27.0942 38.1863 27.0822L38.1775 26.6475Z" fill="#222222"/>
    <path d="M16.1475 0L37.8224 12.5842L26.825 18.9672L5.15015 6.38524L16.1475 0Z" fill="#EDEDED"/>
    <path d="M26.825 18.6388L5.43467 6.21875L5.15015 6.38509L26.825 18.967L37.8224 12.584L37.5379 12.4177L26.825 18.6388Z" fill="#F2EFEC"/>
    <path d="M37.2246 30.3646L37.9348 30.7771L38.2966 30.0009L38.9119 29.4531L40.9345 30.6285C40.9345 30.6285 41.7396 31.152 42.3549 32.7022C42.5039 33.1533 42.6247 33.6133 42.7167 34.0795L42.86 34.0529C42.8608 33.589 42.7916 33.1276 42.6549 32.6845C42.4145 31.7796 41.5124 30.5043 40.8617 29.961C40.2111 29.4176 37.3327 27.8296 37.3327 27.8296L37.2246 29.32V30.3646Z" fill="#292929"/>
    <path d="M45.3347 33.5627L43.2989 35.3614L37.9943 38.442L35.7644 39.2582V37.1313L45.3479 32.4072L45.3347 33.5627Z" fill="#EDEDED"/>
    <path d="M45.3349 33.4966V33.6784L44.7085 34.315L43.9431 34.9604L43.2991 35.3618L44.21 33.8226L45.3349 33.4966Z" fill="#EDEDED"/>
    <path d="M28.4131 24.6358L28.1418 30.0097V33.1657L31.9819 35.7851L33.2325 37.7811L35.7646 39.256V37.2599L36.1483 37.3864V35.4502L35.9278 35.2284L35.8418 34.4432C35.8418 34.4432 35.5109 33.2678 35.2352 32.1234C34.9595 30.9789 34.3353 28.0092 34.3199 28.0136L34.0993 27.7475L28.5411 24.5205L28.4131 24.6358Z" fill="#D4CEC7"/>
    <path d="M28.1418 30.0098V33.1658L31.9841 35.7851L33.2347 37.79L35.7646 39.2583L36.0645 39.0808L36.1483 38.655V35.7296L33.7861 34.4544L30.3343 31.2828L28.1418 30.0098Z" fill="#D4CEC7"/>
    <path d="M35.6676 39.1584L35.7404 38.8768V37.3597V35.5189L35.7139 35.2173L34.2163 28.1711L33.956 27.8296L28.4441 24.6114L28.55 24.5205L34.1104 27.7497L34.3177 28.0136L35.8948 34.8935L36.0602 35.1641L35.9212 35.2306L36.1484 35.4479V39.0364L35.8418 39.2117H35.7646L35.6676 39.1584Z" fill="#E0DAD3"/>
    <path d="M35.7645 39.2587L33.2346 37.7905V37.7461L35.7645 39.2121V39.2587Z" fill="#292929"/>
    <path d="M30.2306 26.1421L33.72 28.167C33.7898 28.2074 33.8503 28.2624 33.8975 28.3282C33.9446 28.3939 33.9774 28.469 33.9935 28.5484C34.1037 29.0963 34.3772 30.4359 34.6221 31.5337C34.9309 32.9199 34.997 33.5298 34.997 33.5298V34.5611C34.997 34.6609 34.9265 34.7008 34.8404 34.652L34.0177 34.173C33.8611 34.0842 31.5408 31.2232 31.2298 31.0413L29.9593 30.3028C29.9138 30.2734 29.8759 30.2335 29.8486 30.1865C29.8214 30.1394 29.8057 30.0865 29.8027 30.0322L30.074 26.2219C30.074 26.131 30.1446 26.0911 30.2306 26.1421Z" fill="#2E2E3B"/>
    <path d="M34.0771 34.0798C34.0087 34.0288 33.5433 33.4832 33.0956 32.9553C32.1538 31.8464 31.4744 31.0546 31.2869 30.9481L30.0187 30.2096C29.9904 30.191 29.9668 30.1662 29.9496 30.1369C29.9323 30.1077 29.922 30.0749 29.9194 30.041L30.1907 26.2529L33.6624 28.269C33.7182 28.3008 33.7667 28.3442 33.8047 28.3961C33.8427 28.4481 33.8694 28.5076 33.883 28.5706C33.9889 29.1029 34.2668 30.4602 34.5116 31.5581C34.8005 32.8511 34.8777 33.4787 34.8843 33.5541V34.5566L34.0771 34.0798Z" fill="#494760"/>
    <path d="M29.7608 32.0572L30.2173 32.3212C30.2382 32.3365 30.2552 32.3565 30.267 32.3796C30.2789 32.4027 30.2853 32.4282 30.2857 32.4542V33.5632C30.2857 33.6142 30.2548 33.6386 30.2173 33.6164L29.7608 33.3525C29.7399 33.3371 29.7229 33.3171 29.7111 33.294C29.6992 33.2709 29.6928 33.2454 29.6924 33.2194V32.0994C29.6924 32.0594 29.7233 32.035 29.7608 32.0572Z" fill="#383838"/>
    <path d="M29.7761 32.7866L30.2172 33.0372V33.4808C30.2172 33.503 30.2018 33.5141 30.1842 33.5052L29.8158 33.2834C29.806 33.2763 29.7978 33.267 29.7921 33.2562C29.7864 33.2455 29.7832 33.2335 29.7827 33.2213L29.7761 32.7866Z" fill="#222222"/>
    <path d="M15.5145 29.6265L15.3954 28.5486L14.4602 26.1089L14.6058 26.0513L15.5498 28.522L15.6689 29.6087L15.5145 29.6265Z" fill="#292929"/>
    <path d="M15.669 29.6086L15.5499 28.5307L14.6147 26.091L15.7529 25.3857L16.6969 27.8542L16.8182 28.9432L15.669 29.6086Z" fill="#1D1D1D"/>
    <path d="M5.15015 6.38525L26.825 18.9672V33.4898L5.15015 20.9078V6.38525Z" fill="#D4CEC7"/>
    <path d="M26.3441 19.2579V32.6405L5.63086 20.6197V7.23486L5.95509 7.42116L6.18227 7.55202L26.3441 19.2579Z" fill="#E0DAD3"/>
    <path d="M26.3443 21.9703V32.6427L5.6333 20.6196L6.32146 20.2182L12.0561 16.8892L18.2209 16.2061L26.3443 21.9703Z" fill="#BCB6BA"/>
    <path d="M26.3442 19.2576V32.3053L5.92212 20.4486V7.40088L26.3442 19.2576Z" fill="#C7C8CA"/>
    <path d="M9.0564 25.5586L9.50194 25.8159V24.4985L9.0564 24.2412V25.5586Z" fill="#862929"/>
    <path d="M28.0339 35.7079L28.5081 35.8343L28.8698 35.0558L29.719 34.7963L31.7416 35.9718C31.7416 35.9718 32.5489 36.4952 33.1642 38.0455C33.3015 38.5305 33.3938 39.0272 33.4399 39.5293L33.6605 39.3962C33.6612 38.9315 33.592 38.4694 33.4554 38.0255C33.215 37.1229 32.3129 35.8476 31.6622 35.3042C31.0115 34.7608 28.1332 33.1729 28.1332 33.1729L27.9126 33.3059L28.0339 35.7079Z" fill="#404040"/>
    <path d="M27.7207 35.8826L28.4309 36.2952L28.7926 35.5189L29.4896 34.9223L31.5122 36.0978C31.5122 36.0978 32.3195 36.6212 32.9327 38.1737C33.0829 38.6237 33.2037 39.083 33.2944 39.5488L33.44 39.5222C33.4407 39.0582 33.3715 38.5968 33.2348 38.1537C32.9944 37.2488 32.0901 35.9736 31.4416 35.4302C30.7932 34.8868 27.9126 33.2988 27.9126 33.2988L27.7207 34.838V35.8826Z" fill="#222222"/>
    <path d="M42.7564 22.7262L42.6461 22.7906L34.6021 27.4636L34.1102 27.7497L28.5498 24.5205L28.949 24.0969L29.077 23.9616L36.4879 19.6612L37.2003 19.5015L42.5711 22.6198L42.7564 22.7262Z" fill="#FCFBFA"/>
    <path d="M45.3479 32.4073L43.4511 33.8666L42.7497 34.1195L38.9163 36.3462L37.1341 37.1779L36.1482 37.535V35.5189L45.3479 30.3003V31.285V32.4073Z" fill="#EDEDED"/>
    <path d="M36.2741 35.588L36.0977 35.4571L45.3481 30.0854V30.3671L44.6864 31.1168L43.1756 32.1969L38.7091 34.7918L37.2247 35.4482L36.2741 35.588Z" fill="#F2EFEC"/>
    <path d="M45.3481 30.0856L44.3048 30.9462L43.0079 31.8865L38.5812 34.457L37.3328 34.9938L36.0866 35.5017L35.9211 35.2311L45.0988 29.4092L45.2047 29.8417L45.3481 30.0856Z" fill="#F2EFEC"/>
    <path d="M35.9212 35.2308H35.6477L34.9993 34.9868L35.6455 35.3949L36.2741 35.5879L35.9212 35.2308Z" fill="#F2EFEC"/>
    <path d="M35.6542 39.1234L33.4662 37.8548V37.837C33.3454 37.4524 33.1865 37.0809 32.992 36.7281C32.6202 36.0582 32.1469 35.4506 31.5892 34.9272L29.5114 33.7118C29.4203 33.652 29.3444 33.5715 29.29 33.4767C29.2356 33.3819 29.2041 33.2755 29.1982 33.1662L29.71 25.8672C29.7064 25.8291 29.7134 25.7907 29.7301 25.7562C29.7468 25.7218 29.7727 25.6927 29.8048 25.672C29.8399 25.6552 29.8787 25.648 29.9175 25.6511C29.9562 25.6542 29.9934 25.6676 30.0254 25.6898L33.936 27.9587C34.0623 28.0396 34.1603 28.1582 34.2161 28.298C34.2671 28.4367 34.3048 28.5801 34.3286 28.7261C34.3639 28.8946 34.4124 29.123 34.4984 29.4602C34.8094 30.6689 35.577 34.0534 35.6012 34.182C35.6255 34.3106 35.6873 35.0891 35.6895 35.1224L35.6542 39.1234ZM33.5345 37.7927L35.577 38.9792L35.6079 35.1202C35.6079 35.078 35.5439 34.3217 35.5218 34.1887C35.4998 34.0556 34.7322 30.68 34.419 29.4735C34.333 29.1341 34.2845 28.9035 34.2492 28.7371C34.2257 28.5957 34.1888 28.4568 34.1389 28.3224C34.0899 28.1991 34.0044 28.0938 33.8941 28.0208L29.9967 25.7608C29.9761 25.7461 29.9523 25.7368 29.9272 25.7337C29.9022 25.7306 29.8768 25.7338 29.8533 25.743C29.8335 25.758 29.818 25.778 29.8083 25.801C29.7986 25.824 29.7951 25.8491 29.7982 25.8739L29.2865 33.1729C29.2925 33.2684 29.3205 33.3613 29.3683 33.444C29.4162 33.5268 29.4826 33.5972 29.5622 33.6497L31.6399 34.8673C32.2092 35.3968 32.6916 36.0137 33.0692 36.6948C33.2532 37.0504 33.406 37.4215 33.5257 37.8038L33.5345 37.7927Z" fill="#A1988C"/>
    <path d="M44.9025 30.1697L44.5717 30.5312L43.8284 31.1544L42.8358 31.9174L38.6297 34.3637L36.746 34.9869L36.0601 35.1643L35.8947 34.8938L34.3198 28.0139L42.9682 22.9927L43.9695 25.4124L45.0282 29.1096L45.0988 29.409V29.9035L44.9025 30.1697Z" fill="#EDEDED"/>
    <path d="M36.2168 34.1176L36.3072 34.4303L36.4241 34.6699L36.7329 34.8318L38.5901 34.2041L42.783 31.78L43.7623 31.0193L44.5409 30.3583L44.81 29.968L44.8475 29.7285L44.7505 29.1562L36.2168 34.1176Z" fill="#2E2E3B"/>
    <path d="M44.7084 29.2047L43.4887 30.5732L42.5954 31.2918L39.4171 33.1038L37.9525 33.7314L36.2167 34.1173L35.9895 33.4874L36.638 32.8753L38.1091 32.1323L40.0192 30.9857L40.4405 29.5352L42.7586 28.2422L44.6356 29.1493L44.7084 29.2047Z" fill="#5C5973"/>
    <path d="M44.5827 28.5196L44.5453 28.5618L43.3233 29.9324L42.4322 30.6488L39.2517 32.463L37.7894 33.0907L36.0535 33.4766L35.8241 32.8445L35.4293 31.4029L34.6926 28.4154L34.922 28.1071L35.791 27.801L37.3394 27.0825L39.9553 25.5654L40.8861 25.0265L42.0838 24.1527L42.7829 23.4873L42.9131 23.5073L44.0468 26.4748L44.5827 28.5196Z" fill="#383844"/>
    <path d="M44.4526 28.4863L44.1879 28.7857L43.8196 29.2005L43.2439 29.8459L42.3661 30.5511L39.201 32.3587L37.7541 32.9775L36.1285 33.339L35.9366 32.8089L35.5418 31.3717L34.8184 28.4419L34.9948 28.2068L35.8352 27.9097L37.3923 27.1866L40.0149 25.6674L40.0435 25.6519L40.9501 25.124L42.1588 24.2435L42.6616 23.7667L42.8337 23.627L43.9343 26.5124L44.4526 28.4863Z" fill="#494760"/>
    <path d="M44.1879 28.2025V28.7858L43.8195 29.2006L43.2086 28.8479C43.0828 28.7747 41.0206 26.6057 40.0435 25.652L40.95 25.1264L42.1587 24.2392L42.6616 23.7624L42.7763 23.667C43.1774 24.5687 43.5287 25.492 43.8283 26.4327C44.2298 27.7989 44.1879 28.2025 44.1879 28.2025Z" fill="#7D7C8E"/>
    <g style="mix-blend-mode:screen">
        <path d="M37.3328 27.2798C36.6579 27.557 35.9102 27.9207 35.9102 27.9207L35.0279 28.1935L34.8074 28.4752L36.1153 33.3545L36.305 33.9533L37.8975 33.6162L39.3267 33.0108L39.2937 32.4186L37.3328 27.2798Z" fill="#1B1A1F"/>
    </g>
    <path d="M44.7503 29.1561L44.7062 29.2049L43.4886 30.5733L42.5953 31.2919L39.417 33.1061L37.9525 33.7315L36.2166 34.1174L35.9894 33.4876L35.5351 31.8375L35.4292 31.4028L35.824 32.8444L36.0534 33.4765L37.7892 33.0906L39.2516 32.4629L42.4321 30.6487L43.3232 29.9323L44.5451 28.5617L44.5826 28.5195L44.7503 29.1561Z" fill="#2E2E3B"/>
    <path d="M42.9682 22.9927L41.9735 23.7179L40.4582 24.7382L37.1365 26.6655L36.0425 27.1601L34.3177 28.014L34.1104 27.75L34.6022 27.4639L42.6462 22.7909L42.7565 22.7266L42.9682 22.9927Z" fill="#FCFBFA"/>
    <path d="M42.9681 22.9927L41.9734 23.718L40.4581 24.7382L37.1364 26.6655L36.0424 27.1601L34.3176 28.014L34.1102 27.75L28.5498 24.5208L28.949 24.0972L28.8564 24.3789L34.2823 27.5371L34.6021 27.4639L34.7587 27.4285L36.9621 26.4792L39.3795 25.0775L41.744 23.5627L42.6461 22.7953V22.7909L42.5711 22.6201L42.7564 22.7266L42.9681 22.9927Z" fill="#F2EFEC"/>
    <path d="M39.6641 26.3305L39.3266 26.5257C39.1341 26.6362 38.9485 26.7584 38.7708 26.8917C38.7408 26.9165 38.7179 26.9489 38.7043 26.9855C38.6907 27.0221 38.687 27.0616 38.6936 27.1001L38.7355 27.2975C38.7369 27.3133 38.7421 27.3285 38.7505 27.3418C38.759 27.3552 38.7705 27.3663 38.784 27.3744C38.7976 27.3824 38.8129 27.387 38.8286 27.3879C38.8443 27.3889 38.86 27.386 38.8744 27.3796C39.0708 27.296 39.2617 27.1997 39.4457 27.0913L39.7832 26.8961C39.9757 26.7856 40.1613 26.6634 40.339 26.5301C40.369 26.5053 40.3919 26.473 40.4055 26.4363C40.419 26.3997 40.4227 26.3602 40.4162 26.3217L40.3743 26.1243C40.3728 26.1085 40.3677 26.0933 40.3592 26.08C40.3508 26.0666 40.3393 26.0555 40.3257 26.0474C40.3121 26.0394 40.2969 26.0348 40.2811 26.0339C40.2654 26.0329 40.2497 26.0358 40.2353 26.0422C40.0389 26.1258 39.8481 26.2221 39.6641 26.3305Z" fill="#5C5973"/>
    <path d="M39.737 26.581C39.737 26.4834 39.7127 26.2173 39.7127 26.2173H39.3774C39.3774 26.2173 39.4149 26.5965 39.4194 26.6099C39.4392 26.672 39.5208 26.7385 39.5539 26.7363C39.6377 26.7341 39.7414 26.6853 39.737 26.581Z" fill="#5C5973"/>
    <path d="M39.6841 26.1355C39.6984 26.1521 39.7088 26.1717 39.7143 26.193C39.7198 26.2143 39.7203 26.2365 39.7158 26.258C39.7114 26.2795 39.702 26.2997 39.6884 26.3169C39.6749 26.3341 39.6575 26.348 39.6377 26.3573C39.6 26.3787 39.5558 26.3858 39.5133 26.3773C39.4708 26.3687 39.4328 26.3451 39.4061 26.3107C39.3918 26.2942 39.3814 26.2745 39.3759 26.2532C39.3704 26.232 39.3699 26.2097 39.3744 26.1882C39.3788 26.1667 39.3882 26.1466 39.4018 26.1293C39.4153 26.1121 39.4327 26.0983 39.4525 26.0889C39.4902 26.0675 39.5344 26.0604 39.5769 26.069C39.6194 26.0775 39.6574 26.1011 39.6841 26.1355Z" fill="#5F5C75"/>
    <path d="M34.3507 32.5404C34.2826 32.4644 34.2047 32.398 34.1191 32.343C34.084 32.3208 34.0447 32.3062 34.0037 32.3001C33.9627 32.294 33.9208 32.2965 33.8809 32.3075L33.4022 32.4139C33.2922 32.4413 33.1938 32.5035 33.1215 32.5913C33.0492 32.6792 33.0069 32.788 33.0008 32.9019V34.8203C32.9993 34.8932 33.0226 34.9644 33.067 35.0222C33.1364 35.1024 33.2166 35.1725 33.3052 35.2306L33.3581 35.1286C33.3721 35.1298 33.3861 35.1298 33.4 35.1286L33.8787 35.0222C34.0992 34.9734 34.1874 34.9734 34.2999 34.7582C34.2999 34.7582 34.2999 33.3942 34.2867 32.842L34.3507 32.5404Z" fill="#2E2E3B"/>
    <path d="M34.331 33.7114L34.6398 33.9332L35.0809 34.2082C35.1422 34.2416 35.1911 34.2939 35.2205 34.3574C35.2499 34.4209 35.2582 34.4923 35.2441 34.5609C35.1846 34.9268 34.9067 34.7982 34.9067 34.7982L34.2869 34.5764L34.331 33.7114Z" fill="#2E2E3B"/>
    <path d="M34.0572 35.1842L33.5808 35.2906C33.5334 35.3055 33.4832 35.3088 33.4344 35.3002C33.3855 35.2916 33.3394 35.2714 33.2999 35.2412C33.2604 35.211 33.2286 35.1718 33.2073 35.1267C33.1859 35.0817 33.1756 35.0322 33.1772 34.9824V33.0617C33.1832 32.9477 33.2258 32.8388 33.2985 32.7512C33.3713 32.6637 33.4703 32.6022 33.5808 32.576L34.0572 32.4673C34.2778 32.4185 34.4079 32.5383 34.4586 32.7756C34.4697 32.8222 34.4785 34.918 34.4785 34.918C34.3682 35.1332 34.28 35.1332 34.0572 35.1842Z" fill="url(#paint1_linear_12315:73652)"/>
    <path d="M35.7027 26.9492L29.9062 23.5714L30.0099 23.5093L35.7402 26.9492H35.7027Z" fill="#CDC3B7"/>
    <path d="M35.7403 26.916L29.9417 23.536L30.0475 23.4761L35.844 26.8539L35.7403 26.916Z" fill="#EDEDED"/>
    <path d="M35.7402 26.9161V26.9494L35.8439 26.8895V26.854L35.7402 26.9161Z" fill="#F4F1EE"/>
    <path d="M35.7403 26.9494L29.9417 23.5716V23.5361L35.7403 26.9162V26.9494Z" fill="#CDC3B7"/>
    <path d="M36.8541 26.2817L31.0576 22.9017L31.1613 22.8418L36.8893 26.2817H36.8541Z" fill="#CDC3B7"/>
    <path d="M36.8895 26.2461L31.093 22.8683L31.1989 22.8062L36.9953 26.1862L36.8895 26.2461Z" fill="#EDEDED"/>
    <path d="M36.8894 26.2464V26.2819L36.9953 26.2198V26.1865L36.8894 26.2464Z" fill="#F4F1EE"/>
    <path d="M36.8895 26.2819L31.093 22.9019V22.8687L36.8895 26.2465V26.2819Z" fill="#CDC3B7"/>
    <path d="M38.0054 25.6142L32.2068 22.2342L32.3127 22.1743L38.0407 25.6142H38.0054Z" fill="#CDC3B7"/>
    <path d="M38.0408 25.5786L32.2444 22.1986L32.3481 22.1387L38.1467 25.5187L38.0408 25.5786Z" fill="#EDEDED"/>
    <path d="M38.0408 25.5784V25.6139L38.1466 25.5518V25.5186L38.0408 25.5784Z" fill="#F4F1EE"/>
    <path d="M38.0408 25.6142L32.2444 22.2342V22.1987L38.0408 25.5788V25.6142Z" fill="#CDC3B7"/>
    <path d="M39.1546 24.9445L33.3582 21.5667L33.464 21.5068L39.1921 24.9445H39.1546Z" fill="#CDC3B7"/>
    <path d="M39.192 24.9111L33.3955 21.5311L33.4992 21.4712L39.2956 24.8512L39.192 24.9111Z" fill="#EDEDED"/>
    <path d="M39.1921 24.911V24.9442L39.2958 24.8843V24.8511L39.1921 24.911Z" fill="#F4F1EE"/>
    <path d="M39.192 24.9445L33.3955 21.5667V21.5312L39.192 24.9113V24.9445Z" fill="#CDC3B7"/>
    <path d="M40.306 24.2768L34.5095 20.899L34.6132 20.8369L40.3435 24.2768H40.306Z" fill="#CDC3B7"/>
    <path d="M40.3433 24.2436L34.5447 20.8636L34.6506 20.8037L40.447 24.1815L40.3433 24.2436Z" fill="#EDEDED"/>
    <path d="M40.3435 24.2437V24.277L40.4472 24.2171V24.1816L40.3435 24.2437Z" fill="#F4F1EE"/>
    <path d="M40.3433 24.2766L34.5447 20.8988V20.8633L40.3433 24.2433V24.2766Z" fill="#CDC3B7"/>
    <path d="M41.4573 23.6093L35.6609 20.2293L35.7646 20.1694L41.4926 23.6093H41.4573Z" fill="#CDC3B7"/>
    <path d="M41.4925 23.5737L35.696 20.1959L35.7997 20.1338L41.5984 23.5138L41.4925 23.5737Z" fill="#EDEDED"/>
    <path d="M41.4927 23.5736V23.609L41.5985 23.5492V23.5137L41.4927 23.5736Z" fill="#F4F1EE"/>
    <path d="M41.4925 23.6091L35.696 20.2291V20.1958L41.4925 23.5736V23.6091Z" fill="#CDC3B7"/>
    <path d="M37.0615 26.1089L36.7395 25.9226L36.9954 25.7695L37.2446 26.1089H37.0615Z" fill="#EBE7E3"/>
    <path d="M37.2446 26.1086L37.5005 25.9555V25.8291L37.2446 25.9799V26.1086Z" fill="#E07427"/>
    <path d="M37.2444 25.9802L36.9224 25.7961L37.1782 25.6431L37.5002 25.8294L37.2444 25.9802Z" fill="#FF9A2E"/>
    <path d="M37.2444 25.98L36.9224 25.7959V25.9223L37.2444 26.1086V25.98Z" fill="#E06F2E"/>
    <path d="M38.3364 25.3459L38.0144 25.1596L38.2681 25.0088L38.5195 25.3459H38.3364Z" fill="#EBE7E3"/>
    <path d="M38.5193 25.3459L38.7729 25.1928V25.0664L38.5193 25.2194V25.3459Z" fill="#E07427"/>
    <path d="M38.5193 25.2192L38.1973 25.0329L38.4509 24.8799L38.7729 25.0662L38.5193 25.2192Z" fill="#FF9A2E"/>
    <path d="M38.5193 25.2195L38.1973 25.0332V25.1596L38.5193 25.3459V25.2195Z" fill="#E06F2E"/>
    <path d="M39.6089 24.5827L39.2869 24.3986L39.5427 24.2456L39.792 24.5827H39.6089Z" fill="#EBE7E3"/>
    <path d="M39.792 24.5827L40.0479 24.4319V24.3032L39.792 24.4563V24.5827Z" fill="#E07427"/>
    <path d="M39.792 24.4563L39.47 24.2722L39.7236 24.1191L40.0479 24.3032L39.792 24.4563Z" fill="#FF9A2E"/>
    <path d="M39.792 24.4565L39.47 24.2725V24.3989L39.792 24.583V24.4565Z" fill="#E06F2E"/>
    <path d="M45.3347 33.6782V33.9954L44.9884 34.3591L44.2231 35.0511L43.5503 35.5301L40.2816 37.3909L38.0759 38.613L36.3114 39.2584H35.7644L35.8416 39.2118L36.0644 39.0809L38.7464 37.8145L43.7819 34.9712L45.3347 33.6782Z" fill="#EDEDED"/>
    <path d="M45.3347 33.9487V33.9953L44.9884 34.359L44.2231 35.051L43.5503 35.5301L38.8589 38.2004L38.0759 38.6129L36.3114 39.2583H35.7644V39.2117H36.3114L38.0759 38.5663L38.8589 38.156L43.5503 35.4857L44.2231 35.0067L44.9884 34.3125L45.3347 33.9487Z" fill="#292929"/>
    <path d="M43.9915 35.0356L43.7291 35.2707L38.9781 38.0009L38.7046 38.1051L39.0751 36.8875L39.256 36.0891L43.5504 33.5718L43.707 34.2305L43.9915 35.0356Z" fill="#42424D"/>
    <path d="M43.7291 34.7826L38.9781 37.5106L38.7641 37.5926L38.7046 37.7856L38.9781 37.6791L43.7291 34.9511L43.9915 34.716L43.9474 34.5874L43.7291 34.7826Z" fill="#EDEDED"/>
    <path d="M43.7291 34.3348L38.9781 37.0628L38.7641 37.1449L38.7046 37.3378L38.9781 37.2336L43.7291 34.5034L43.9915 34.2683L43.9474 34.1396L43.7291 34.3348Z" fill="#EDEDED"/>
    <path d="M43.7291 34.2948L38.9781 37.0228L38.7641 37.1048L38.7046 37.2312L38.9781 37.127L43.7291 34.399L43.9915 34.1617L43.9474 34.0996L43.7291 34.2948Z" fill="#EDEDED"/>
    <path d="M41.3118 36.6945L41.5103 36.5791V35.3926L41.3118 35.5079V36.6945Z" fill="#EDEDED"/>
    <path d="M43.7336 34.2992L39.0444 36.9917L39.2562 36.0891L43.5506 33.5718L43.7336 34.2992Z" fill="#2E2E3B"/>
    <path d="M44.4241 34.459L44.1064 33.5252L45.3394 32.1479L45.3262 33.6095L44.4241 34.459Z" fill="#B9B3C0"/>
    <path d="M44.3953 34.3747L44.0754 33.441L45.3481 32.0415L45.3349 33.4898L44.3953 34.3747Z" fill="#42424D"/>
    <path d="M45.3481 32.1172L45.3349 33.4324L44.4152 34.2996L44.371 34.1443L44.1439 33.4989L44.1262 33.4501L45.3481 32.1172Z" fill="#C1E2EE"/>
    <path d="M38.2238 38.1583L38.6517 36.5459L36.499 37.1691L36.2674 37.2844L36.0116 37.2423L35.8594 37.1691V38.6861L36.0182 38.7571L36.2057 38.8192L36.4902 38.7882L38.2238 38.1583Z" fill="#B9B3C0"/>
    <path d="M38.1047 38.0808L38.5039 36.5859L36.3512 37.2092H36.1483L35.8902 37.1648L35.7402 37.0916V38.6086L35.899 38.6818L36.0865 38.7417L36.371 38.7106L38.1047 38.0808Z" fill="#42424D"/>
    <path d="M38.4422 36.6479L38.0695 38.0496L36.3623 38.6684L36.091 38.6973L35.9124 38.6396L35.7844 38.5819V37.1625L35.8771 37.2068L36.1417 37.2534H36.3579L36.5873 37.1869L38.0187 36.7699L38.4422 36.6479Z" fill="#C1E2EE"/>
    <path d="M35.78 37.165L35.8616 37.2005L36.1396 37.2427H36.3579L36.5167 37.2027V38.5712L36.3557 38.6288L36.0756 38.6599L35.8903 38.6022L35.78 38.5446V37.165Z" fill="#FF9A2E"/>
    <path d="M45.3481 32.1392L45.1782 32.3144L45.1826 33.5231L45.3392 33.39L45.3481 32.1392Z" fill="#FF9A2E"/>
    <path d="M38.0186 36.77L37.6503 37.89L36.5872 38.2604V37.187L38.0186 36.77Z" fill="#EBF4F7"/>
    <path d="M45.0635 32.4653V33.3547L44.3269 34.0201L44.1438 33.4989L45.0635 32.4653Z" fill="#EBF4F7"/>
    <path d="M39.5759 38.7017L41.2831 37.7036V37.8722L39.5759 38.8636V38.7017Z" fill="#42424D"/>
    <path d="M43.299 36.5239V36.7014L41.594 37.6927V37.5197L43.299 36.5239Z" fill="#42424D"/>
    <path d="M39.5759 38.9746L41.2831 37.9766V38.225L39.5759 39.2164V38.9746Z" fill="#42424D"/>
    <path d="M43.299 36.7964V37.0537L41.594 38.045V37.7922L43.299 36.7964Z" fill="#42424D"/>
    <path d="M41.8081 33.8379C41.8081 33.9643 41.6206 34.175 41.3912 34.3081C41.1618 34.4411 40.9766 34.4478 40.9766 34.3214C40.9766 34.1949 41.1618 33.9842 41.3912 33.8512C41.6206 33.7181 41.8081 33.7115 41.8081 33.8379Z" fill="#B9B3C0"/>
    <defs>
        <linearGradient id="paint0_linear_12315:73652" x1="44.5111" y1="27.1607" x2="45.2543" y2="27.1607" gradientUnits="userSpaceOnUse">
            <stop offset="0.02" stop-color="#2E2E3B"/>
            <stop offset="0.14" stop-color="#393945"/>
            <stop offset="0.3" stop-color="#40404B"/>
            <stop offset="0.77" stop-color="#42424D"/>
        </linearGradient>
        <linearGradient id="paint1_linear_12315:73652" x1="213.659" y1="-314.689" x2="221.359" y2="-314.689" gradientUnits="userSpaceOnUse">
            <stop offset="0.02" stop-color="#2E2E3B"/>
            <stop offset="0.14" stop-color="#393945"/>
            <stop offset="0.3" stop-color="#40404B"/>
            <stop offset="0.77" stop-color="#42424D"/>
        </linearGradient>
    </defs>
</svg>